<svg version="1.1" id="Layer_1" xmlns="http://www.w3.org/2000/svg" xmlns:xlink="http://www.w3.org/1999/xlink" x="0px" y="0px"
	 width="100%" viewBox="0 0 512 512" enable-background="new 0 0 512 512" xml:space="preserve">
<path fill="#FFFFFF" opacity="1.000000" stroke="none" 
	d="
M1.000000,189.000000 
	C1.000000,126.000000 1.000000,63.500000 1.000000,1.000000 
	C171.666672,1.000000 342.333344,1.000000 513.000000,1.000000 
	C513.000000,171.666672 513.000000,342.333344 513.000000,513.000000 
	C342.333344,513.000000 171.666672,513.000000 1.000000,513.000000 
	C1.000000,405.166656 1.000000,297.333344 1.000000,189.000000 
M197.806351,196.440079 
	C197.133377,195.827286 196.460403,195.214478 195.750977,193.869156 
	C194.185837,192.213120 192.620697,190.557083 190.706940,188.328949 
	C188.823334,187.184067 186.939728,186.039200 184.680252,184.304352 
	C183.138443,183.835587 181.596619,183.366821 179.617386,182.277725 
	C177.076385,181.906204 174.535385,181.534668 171.283096,180.784134 
	C168.428329,180.855392 165.570023,180.859238 162.719421,181.009399 
	C149.248947,181.719040 135.510040,195.204071 134.026428,209.798660 
	C133.739365,212.195007 133.452301,214.591339 133.266006,217.682770 
	C133.564606,218.790573 133.863205,219.898361 134.039169,221.782928 
	C135.007233,223.887985 135.975311,225.993057 136.777466,228.684402 
	C137.481232,230.470367 138.184998,232.256348 139.152161,234.607727 
	C139.732925,235.421036 140.313705,236.234360 141.163727,237.614685 
	C142.092957,238.443573 143.022186,239.272461 144.252365,240.707718 
	C147.128769,242.486435 150.005173,244.265152 153.284210,246.659912 
	C156.153687,247.455582 159.023148,248.251236 162.410950,249.733368 
	C167.456787,249.483887 172.606140,249.789612 177.527451,248.872162 
	C188.595596,246.808807 201.975937,233.488373 202.792114,220.535065 
	C202.808319,217.354477 202.824509,214.173889 202.939041,210.223007 
	C201.661606,206.801056 200.384155,203.379089 199.002838,199.306381 
	C198.613770,198.538803 198.224701,197.771225 197.806351,196.440079 
M304.660736,182.302109 
	C300.674194,181.542526 296.642883,179.964661 292.709686,180.179916 
	C281.794495,180.777191 272.321930,185.094711 265.632080,194.001740 
	C261.928314,198.933029 258.588501,204.302536 259.034210,211.787277 
	C259.077850,214.860611 259.121521,217.933945 259.043732,221.776886 
	C259.990051,224.528610 260.936371,227.280319 262.006531,230.742157 
	C263.988373,233.531479 265.970245,236.320816 268.228882,239.707062 
	C270.194611,241.255768 272.160309,242.804489 274.696808,244.866104 
	C282.350311,249.282440 290.658936,251.317490 299.310303,249.739639 
	C316.969849,246.518845 330.212708,229.870651 327.972290,211.223206 
	C327.017639,208.133224 326.063019,205.043228 325.002533,201.241348 
	C323.612122,198.831711 322.221680,196.422089 320.763489,193.350327 
	C318.189789,191.195572 315.616089,189.040817 312.731323,186.254532 
	C310.188690,185.151932 307.646057,184.049332 304.660736,182.302109 
M415.909882,249.968307 
	C432.971527,251.775467 449.402100,238.570618 452.010590,223.175186 
	C452.285492,218.786331 452.560364,214.397461 452.966766,209.239655 
	C451.924225,206.161255 450.881683,203.082855 449.773621,199.318893 
	C446.884216,196.195282 443.994843,193.071671 441.007690,189.235275 
	C438.006165,187.212585 435.004639,185.189911 431.297882,182.797058 
	C425.564362,181.204666 419.985657,180.268585 413.772186,180.752975 
	C398.020111,181.981003 381.457642,199.065186 384.034729,216.872650 
	C384.651917,220.262482 385.269135,223.652328 385.990295,227.788757 
	C387.954956,231.208572 389.919617,234.628387 392.174622,238.664215 
	C395.099884,240.813004 398.025177,242.961792 401.307159,245.737869 
	C405.874115,247.103073 410.441071,248.468262 415.909882,249.968307 
M319.604095,450.036438 
	C331.422821,443.843597 343.254761,437.675720 355.056488,431.450684 
	C366.008514,425.673767 376.422882,418.397430 387.972656,414.338684 
	C408.929901,406.973877 429.762939,399.552185 448.764496,387.935333 
	C461.642365,380.062256 474.050018,371.420074 487.671448,362.461945 
	C480.622498,356.815674 474.786804,352.184967 468.999023,347.495117 
	C459.882599,340.108032 450.820007,332.654358 441.687256,325.287628 
	C438.975372,323.100098 436.607330,322.719147 433.171265,325.077240 
	C425.762909,330.161346 418.069397,335.014252 409.975922,338.880157 
	C388.022369,349.366425 365.320435,357.879944 340.993469,360.973022 
	C325.619293,362.927795 310.203522,364.711334 294.753052,365.843994 
	C287.066833,366.407440 279.242950,365.556458 271.513092,364.944214 
	C261.583496,364.157715 251.543243,363.698975 241.804230,361.799133 
	C221.777496,357.892426 202.141205,352.623383 183.347046,344.219482 
	C158.563354,333.137360 135.824234,319.459106 117.464668,299.044678 
	C101.721489,281.539490 91.891922,261.482513 87.817421,238.213699 
	C85.020226,222.239349 85.057739,206.369461 88.269272,190.766083 
	C94.297928,161.475555 109.920753,137.574127 132.927383,118.730576 
	C148.444931,106.020912 165.822708,96.203651 184.277222,88.219116 
	C215.126923,74.871696 247.555237,68.479836 280.875427,67.270569 
	C296.735992,66.694946 312.712463,68.844215 328.615570,70.037315 
	C345.289154,71.288208 361.391785,75.509636 377.185211,80.716911 
	C398.315826,87.683899 418.304932,97.147560 436.507812,110.078545 
	C439.303467,112.064537 441.498596,112.311127 444.303619,110.246536 
	C451.067719,105.268059 457.999512,100.518150 464.827911,95.626137 
	C473.945648,89.094040 483.029541,82.514679 492.372406,75.779373 
	C485.228363,70.082802 478.630737,64.242363 471.464020,59.212780 
	C447.109161,42.120560 420.666321,29.109102 392.319489,20.059685 
	C365.809692,11.596727 338.555450,6.491433 310.835114,5.227922 
	C288.596375,4.214265 266.175964,3.858005 244.106476,8.060214 
	C227.327744,11.255023 210.389740,14.075825 193.996307,18.731140 
	C164.147522,27.207424 136.314377,40.436573 111.017250,58.564930 
	C96.352051,69.074272 82.803452,80.812592 70.786125,94.461380 
	C56.856590,110.281982 45.559277,127.563705 36.983845,146.764908 
	C29.346487,163.865692 24.497784,181.806564 23.247429,200.335037 
	C22.062624,217.892120 22.104322,235.669800 26.070580,253.031296 
	C34.065201,288.026184 51.046726,318.243683 75.717232,344.145142 
	C89.509628,358.625732 105.103539,370.905792 122.016060,381.672333 
	C139.868286,393.037140 158.572647,402.555908 178.636078,409.092896 
	C196.138779,414.795502 213.978287,419.464355 231.885773,424.652802 
	C223.405472,452.347626 214.645966,480.954254 205.682587,510.226685 
	C215.644806,505.034332 224.914719,500.255920 234.136551,495.386475 
	C262.432800,480.445068 290.710632,465.468719 319.604095,450.036438 
z"/>
<path fill="#000000" opacity="1.000000" stroke="none" 
	d="
M319.299866,450.271179 
	C290.710632,465.468719 262.432800,480.445068 234.136551,495.386475 
	C224.914719,500.255920 215.644806,505.034332 205.682587,510.226685 
	C214.645966,480.954254 223.405472,452.347626 231.885773,424.652802 
	C213.978287,419.464355 196.138779,414.795502 178.636078,409.092896 
	C158.572647,402.555908 139.868286,393.037140 122.016060,381.672333 
	C105.103539,370.905792 89.509628,358.625732 75.717232,344.145142 
	C51.046726,318.243683 34.065201,288.026184 26.070580,253.031296 
	C22.104322,235.669800 22.062624,217.892120 23.247429,200.335037 
	C24.497784,181.806564 29.346487,163.865692 36.983845,146.764908 
	C45.559277,127.563705 56.856590,110.281982 70.786125,94.461380 
	C82.803452,80.812592 96.352051,69.074272 111.017250,58.564930 
	C136.314377,40.436573 164.147522,27.207424 193.996307,18.731140 
	C210.389740,14.075825 227.327744,11.255023 244.106476,8.060214 
	C266.175964,3.858005 288.596375,4.214265 310.835114,5.227922 
	C338.555450,6.491433 365.809692,11.596727 392.319489,20.059685 
	C420.666321,29.109102 447.109161,42.120560 471.464020,59.212780 
	C478.630737,64.242363 485.228363,70.082802 492.372406,75.779373 
	C483.029541,82.514679 473.945648,89.094040 464.827911,95.626137 
	C457.999512,100.518150 451.067719,105.268059 444.303619,110.246536 
	C441.498596,112.311127 439.303467,112.064537 436.507812,110.078545 
	C418.304932,97.147560 398.315826,87.683899 377.185211,80.716911 
	C361.391785,75.509636 345.289154,71.288208 328.615570,70.037315 
	C312.712463,68.844215 296.735992,66.694946 280.875427,67.270569 
	C247.555237,68.479836 215.126923,74.871696 184.277222,88.219116 
	C165.822708,96.203651 148.444931,106.020912 132.927383,118.730576 
	C109.920753,137.574127 94.297928,161.475555 88.269272,190.766083 
	C85.057739,206.369461 85.020226,222.239349 87.817421,238.213699 
	C91.891922,261.482513 101.721489,281.539490 117.464668,299.044678 
	C135.824234,319.459106 158.563354,333.137360 183.347046,344.219482 
	C202.141205,352.623383 221.777496,357.892426 241.804230,361.799133 
	C251.543243,363.698975 261.583496,364.157715 271.513092,364.944214 
	C279.242950,365.556458 287.066833,366.407440 294.753052,365.843994 
	C310.203522,364.711334 325.619293,362.927795 340.993469,360.973022 
	C365.320435,357.879944 388.022369,349.366425 409.975922,338.880157 
	C418.069397,335.014252 425.762909,330.161346 433.171265,325.077240 
	C436.607330,322.719147 438.975372,323.100098 441.687256,325.287628 
	C450.820007,332.654358 459.882599,340.108032 468.999023,347.495117 
	C474.786804,352.184967 480.622498,356.815674 487.671448,362.461945 
	C474.050018,371.420074 461.642365,380.062256 448.764496,387.935333 
	C429.762939,399.552185 408.929901,406.973877 387.972656,414.338684 
	C376.422882,418.397430 366.008514,425.673767 355.056488,431.450684 
	C343.254761,437.675720 331.422821,443.843597 319.299866,450.271179 
z"/>
<path fill="#416CF3" opacity="1.000000" stroke="none" 
	d="
M327.831757,212.012054 
	C330.212708,229.870651 316.969849,246.518845 299.310303,249.739639 
	C290.658936,251.317490 282.350311,249.282440 274.799438,244.469620 
	C289.573456,234.732880 304.208008,225.333832 318.949219,216.105164 
	C321.690033,214.389297 324.859894,213.358841 327.831757,212.012054 
z"/>
<path fill="#64B143" opacity="1.000000" stroke="none" 
	d="
M391.884277,238.048218 
	C389.919617,234.628387 387.954956,231.208572 386.253601,227.270325 
	C392.095154,222.922333 397.642639,219.047012 403.257874,215.272537 
	C415.855865,206.804428 428.487488,198.386444 441.105438,189.948059 
	C443.994843,193.071671 446.884216,196.195282 449.466553,199.703415 
	C445.546692,202.438644 441.914307,204.759842 438.324554,207.145187 
	C422.837646,217.435944 407.363251,227.745499 391.884277,238.048218 
z"/>
<path fill="#79C843" opacity="1.000000" stroke="none" 
	d="
M384.166626,216.003387 
	C381.457642,199.065186 398.020111,181.981003 413.772186,180.752975 
	C419.985657,180.268585 425.564362,181.204666 431.603882,183.318878 
	C430.731506,184.927094 429.667358,186.181137 428.356934,187.073608 
	C417.183167,194.683594 405.997345,202.277008 394.739807,209.762131 
	C391.336670,212.024887 387.697601,213.932892 384.166626,216.003387 
z"/>
<path fill="#FD51A5" opacity="1.000000" stroke="none" 
	d="
M152.881592,246.043854 
	C150.005173,244.265152 147.128769,242.486435 144.290024,240.121826 
	C162.587357,226.343002 180.847031,213.150070 199.106720,199.957138 
	C200.384155,203.379089 201.661606,206.801056 202.533264,210.613358 
	C201.356110,211.258469 200.457687,211.338501 199.831955,211.793533 
	C184.164368,223.186279 168.525513,234.618561 152.881592,246.043854 
z"/>
<path fill="#4486F0" opacity="1.000000" stroke="none" 
	d="
M267.952087,239.110138 
	C265.970245,236.320816 263.988373,233.531479 262.305725,230.346771 
	C276.767273,221.077148 290.908417,212.168671 305.103302,203.346695 
	C310.280121,200.129364 315.584869,197.117859 320.831268,194.012451 
	C322.221680,196.422089 323.612122,198.831711 324.740448,201.744720 
	C312.318390,209.999023 300.115448,217.683594 288.015320,225.526810 
	C281.239563,229.918793 274.634216,234.573700 267.952087,239.110138 
z"/>
<path fill="#5BA643" opacity="1.000000" stroke="none" 
	d="
M392.029449,238.356216 
	C407.363251,227.745499 422.837646,217.435944 438.324554,207.145187 
	C441.914307,204.759842 445.546692,202.438644 449.499298,200.046204 
	C450.881683,203.082855 451.924225,206.161255 452.542908,209.627075 
	C451.218597,210.365402 450.216827,210.564972 449.433014,211.090012 
	C438.330688,218.527069 427.191132,225.911789 416.207153,233.520737 
	C410.962250,237.154022 406.026306,241.233292 400.950439,245.110580 
	C398.025177,242.961792 395.099884,240.813004 392.029449,238.356216 
z"/>
<path fill="#4D9643" opacity="1.000000" stroke="none" 
	d="
M401.128784,245.424225 
	C406.026306,241.233292 410.962250,237.154022 416.207153,233.520737 
	C427.191132,225.911789 438.330688,218.527069 449.433014,211.090012 
	C450.216827,210.564972 451.218597,210.365402 452.477142,210.011566 
	C452.560364,214.397461 452.285492,218.786331 451.577637,223.632538 
	C439.872101,231.459061 428.572235,238.787415 417.369812,246.261780 
	C416.275391,246.991989 415.780945,248.621429 415.008026,249.833450 
	C410.441071,248.468262 405.874115,247.103073 401.128784,245.424225 
z"/>
<path fill="#71BF43" opacity="1.000000" stroke="none" 
	d="
M384.100677,216.438019 
	C387.697601,213.932892 391.336670,212.024887 394.739807,209.762131 
	C405.997345,202.277008 417.183167,194.683594 428.356934,187.073608 
	C429.667358,186.181137 430.731506,184.927094 431.956482,183.503952 
	C435.004639,185.189911 438.006165,187.212585 441.056580,189.591675 
	C428.487488,198.386444 415.855865,206.804428 403.257874,215.272537 
	C397.642639,219.047012 392.095154,222.922333 386.201630,226.897034 
	C385.269135,223.652328 384.651917,220.262482 384.100677,216.438019 
z"/>
<path fill="#4694EE" opacity="1.000000" stroke="none" 
	d="
M320.797363,193.681396 
	C315.584869,197.117859 310.280121,200.129364 305.103302,203.346695 
	C290.908417,212.168671 276.767273,221.077148 262.243774,229.991714 
	C260.936371,227.280319 259.990051,224.528610 259.466888,221.383301 
	C261.391602,220.353867 263.009033,219.904007 264.376221,219.052444 
	C274.197876,212.934982 284.054260,206.866287 293.725952,200.517517 
	C300.310272,196.195389 306.613495,191.444977 313.042389,186.886047 
	C315.616089,189.040817 318.189789,191.195572 320.797363,193.681396 
z"/>
<path fill="#437EF1" opacity="1.000000" stroke="none" 
	d="
M268.090485,239.408600 
	C274.634216,234.573700 281.239563,229.918793 288.015320,225.526810 
	C300.115448,217.683594 312.318390,209.999023 324.793365,202.100677 
	C326.063019,205.043228 327.017639,208.133224 327.902039,211.617630 
	C324.859894,213.358841 321.690033,214.389297 318.949219,216.105164 
	C304.208008,225.333832 289.573456,234.732880 274.514069,244.213165 
	C272.160309,242.804489 270.194611,241.255768 268.090485,239.408600 
z"/>
<path fill="#48A8EC" opacity="1.000000" stroke="none" 
	d="
M259.167328,211.002716 
	C258.588501,204.302536 261.928314,198.933029 265.632080,194.001740 
	C272.321930,185.094711 281.794495,180.777191 292.709686,180.179916 
	C296.642883,179.964661 300.674194,181.542526 304.569946,182.773071 
	C291.890930,191.380219 279.336609,199.569794 266.683502,207.603836 
	C264.385284,209.063080 261.683044,209.886017 259.167328,211.002716 
z"/>
<path fill="#47A2ED" opacity="1.000000" stroke="none" 
	d="
M259.100769,211.394989 
	C261.683044,209.886017 264.385284,209.063080 266.683502,207.603836 
	C279.336609,199.569794 291.890930,191.380219 304.791260,183.095383 
	C307.646057,184.049332 310.188690,185.151932 312.886841,186.570297 
	C306.613495,191.444977 300.310272,196.195389 293.725952,200.517517 
	C284.054260,206.866287 274.197876,212.934982 264.376221,219.052444 
	C263.009033,219.904007 261.391602,220.353867 259.527618,220.998489 
	C259.121521,217.933945 259.077850,214.860611 259.100769,211.394989 
z"/>
<path fill="#FC866A" opacity="1.000000" stroke="none" 
	d="
M136.943375,228.098114 
	C135.975311,225.993057 135.007233,223.887985 134.457184,221.388275 
	C135.511963,220.835800 136.270050,220.848740 136.767685,220.495132 
	C148.649124,212.052185 160.550354,203.635483 172.336502,195.060791 
	C176.721115,191.870895 180.824509,188.294479 185.056122,184.894318 
	C186.939728,186.039200 188.823334,187.184067 190.730865,188.926971 
	C182.382095,195.913681 174.158554,202.510834 165.596649,208.634949 
	C156.208298,215.350189 146.507828,221.629074 136.943375,228.098114 
z"/>
<path fill="#FE38C1" opacity="1.000000" stroke="none" 
	d="
M153.082901,246.351883 
	C168.525513,234.618561 184.164368,223.186279 199.831955,211.793533 
	C200.457687,211.338501 201.356110,211.258469 202.484100,210.998505 
	C202.824509,214.173889 202.808319,217.354477 202.097275,220.805313 
	C188.232498,230.399338 175.062561,239.723129 161.892624,249.046906 
	C159.023148,248.251236 156.153687,247.455582 153.082901,246.351883 
z"/>
<path fill="#FC777B" opacity="1.000000" stroke="none" 
	d="
M136.860413,228.391266 
	C146.507828,221.629074 156.208298,215.350189 165.596649,208.634949 
	C174.158554,202.510834 182.382095,195.913681 190.905167,189.213028 
	C192.620697,190.557083 194.185837,192.213120 195.381805,194.392746 
	C184.326736,202.456879 173.668854,210.037521 162.945755,217.524750 
	C154.970551,223.093338 146.910828,228.540878 138.888748,234.042313 
	C138.184998,232.256348 137.481232,230.470367 136.860413,228.391266 
z"/>
<path fill="#FE24D7" opacity="1.000000" stroke="none" 
	d="
M162.151794,249.390137 
	C175.062561,239.723129 188.232498,230.399338 201.762360,221.056061 
	C201.975937,233.488373 188.595596,246.808807 177.527451,248.872162 
	C172.606140,249.789612 167.456787,249.483887 162.151794,249.390137 
z"/>
<path fill="#FBAF3C" opacity="1.000000" stroke="none" 
	d="
M134.164566,208.993332 
	C135.510040,195.204071 149.248947,181.719040 162.719421,181.009399 
	C165.570023,180.859238 168.428329,180.855392 171.597015,181.310272 
	C166.912231,185.751160 162.048370,189.855179 156.882736,193.535614 
	C149.424805,198.849289 141.747986,203.855774 134.164566,208.993332 
z"/>
<path fill="#428943" opacity="1.000000" stroke="none" 
	d="
M415.458954,249.900879 
	C415.780945,248.621429 416.275391,246.991989 417.369812,246.261780 
	C428.572235,238.787415 439.872101,231.459061 451.488556,224.049438 
	C449.402100,238.570618 432.971527,251.775467 415.458954,249.900879 
z"/>
<path fill="#FBA547" opacity="1.000000" stroke="none" 
	d="
M134.095490,209.395996 
	C141.747986,203.855774 149.424805,198.849289 156.882736,193.535614 
	C162.048370,189.855179 166.912231,185.751160 171.952667,181.499786 
	C174.535385,181.534668 177.076385,181.906204 179.686279,182.900024 
	C173.413147,188.266159 167.150635,193.121201 160.709946,197.727066 
	C151.597336,204.243683 142.353180,210.576385 133.165253,216.987686 
	C133.452301,214.591339 133.739365,212.195007 134.095490,209.395996 
z"/>
<path fill="#FC935B" opacity="1.000000" stroke="none" 
	d="
M133.215637,217.335236 
	C142.353180,210.576385 151.597336,204.243683 160.709946,197.727066 
	C167.150635,193.121201 173.413147,188.266159 179.904999,183.210205 
	C181.596619,183.366821 183.138443,183.835587 184.868195,184.599335 
	C180.824509,188.294479 176.721115,191.870895 172.336502,195.060791 
	C160.550354,203.635483 148.649124,212.052185 136.767685,220.495132 
	C136.270050,220.848740 135.511963,220.835800 134.518524,220.999893 
	C133.863205,219.898361 133.564606,218.790573 133.215637,217.335236 
z"/>
<path fill="#FD6193" opacity="1.000000" stroke="none" 
	d="
M199.054779,199.631760 
	C180.847031,213.150070 162.587357,226.343002 144.139557,239.818649 
	C143.022186,239.272461 142.092957,238.443573 141.350739,237.193359 
	C150.980942,230.056213 160.407639,223.317062 169.871994,216.631241 
	C179.173325,210.060562 188.512863,203.543976 197.835632,197.003662 
	C198.224701,197.771225 198.613770,198.538803 199.054779,199.631760 
z"/>
<path fill="#FD6A89" opacity="1.000000" stroke="none" 
	d="
M197.820999,196.721863 
	C188.512863,203.543976 179.173325,210.060562 169.871994,216.631241 
	C160.407639,223.317062 150.980942,230.056213 141.216110,236.909851 
	C140.313705,236.234360 139.732925,235.421036 139.020447,234.325012 
	C146.910828,228.540878 154.970551,223.093338 162.945755,217.524750 
	C173.668854,210.037521 184.326736,202.456879 195.400024,194.759003 
	C196.460403,195.214478 197.133377,195.827286 197.820999,196.721863 
z"/>
</svg>