<svg version="1.1" id="Layer_1" xmlns="http://www.w3.org/2000/svg" xmlns:xlink="http://www.w3.org/1999/xlink" x="0px" y="0px"
	 width="100%" viewBox="0 0 1449 280" enable-background="new 0 0 1449 280" xml:space="preserve">
<path fill="#FFFFFF" opacity="1.000000" stroke="none" 
	d="
M1450.000000,201.000000 
	C1450.000000,227.658890 1450.000000,254.317764 1450.000000,281.000000 
	C1001.638611,281.000000 553.277283,281.000000 104.551117,280.652100 
	C111.263931,276.523682 118.337151,272.734955 125.419907,268.964172 
	C149.125351,256.343689 172.660156,243.386093 196.612000,231.251816 
	C209.422821,224.761734 223.201187,220.191452 236.070084,213.802399 
	C243.964188,209.883209 250.963669,204.162033 258.635895,199.070175 
	C249.556137,191.828812 241.424179,185.594559 233.622421,178.971359 
	C231.214630,176.927307 230.131454,177.154633 227.438538,178.695297 
	C219.536499,183.216171 211.388153,187.435852 202.981064,190.915222 
	C189.291885,196.580658 174.951324,199.996429 160.041122,199.940094 
	C147.960770,199.894455 135.701126,200.464279 123.855164,198.617554 
	C112.406715,196.832825 101.051445,193.137558 90.255020,188.791550 
	C74.139122,182.304230 59.585796,172.901154 49.288017,158.503525 
	C39.755054,145.175186 35.660416,130.225479 36.822311,113.521255 
	C38.007942,96.475853 44.685905,82.291672 56.298306,70.329742 
	C67.050179,59.254242 80.169785,51.262253 94.639153,46.358162 
	C106.908409,42.199745 119.729935,39.202229 132.545395,37.279160 
	C141.999100,35.860554 151.864670,36.545803 161.494720,37.138611 
	C169.726868,37.645367 178.030685,38.744617 186.044891,40.660625 
	C201.584076,44.375683 216.370834,50.110676 229.402283,59.725906 
	C231.289429,61.118324 233.112549,61.465290 235.412750,59.313988 
	C238.807861,56.138657 242.929306,53.737751 246.753387,51.023865 
	C251.543457,47.624424 256.345612,44.241997 261.177917,40.827232 
	C258.136719,38.240719 255.887741,35.734013 253.126556,34.084930 
	C242.534744,27.759096 232.098892,21.040688 221.005096,15.719071 
	C206.126831,8.582066 190.179504,4.571241 173.679871,2.970453 
	C168.769089,2.494012 163.892334,1.666599 159.000000,1.000000 
	C589.213074,1.000000 1019.426086,1.000000 1450.000000,1.000000 
	C1450.000000,66.694260 1450.000000,132.389191 1449.643799,198.440186 
	C1446.251709,191.729843 1443.217285,184.662903 1440.180176,177.597046 
	C1430.879272,155.958115 1421.498413,134.353149 1412.296753,112.672127 
	C1401.596558,87.460716 1391.086060,62.168770 1380.347290,36.974068 
	C1379.796875,35.683052 1377.888672,34.157570 1376.583130,34.129871 
	C1365.801392,33.901112 1355.012695,34.000492 1344.256348,34.000492 
	C1320.511841,89.805672 1296.907837,145.280930 1273.199951,201.000000 
	C1285.242188,201.000000 1296.738647,200.919662 1308.232422,201.059586 
	C1310.922607,201.092331 1312.104126,200.314743 1313.094238,197.676056 
	C1316.862305,187.633438 1320.992310,177.725906 1325.039551,167.789307 
	C1325.990356,165.455109 1327.140137,163.860748 1330.385986,163.893311 
	C1351.210327,164.102341 1372.038208,163.953232 1392.863403,164.107330 
	C1394.225342,164.117416 1396.316040,165.356293 1396.815796,166.548416 
	C1401.146851,176.878006 1405.053345,187.387024 1409.469482,197.678177 
	C1410.132080,199.222351 1412.760132,200.813370 1414.515137,200.854752 
	C1426.338013,201.133484 1438.170532,201.000000 1450.000000,201.000000 
M89.847580,135.974411 
	C98.706978,134.906433 104.020798,130.929749 106.167473,123.362244 
	C106.393661,122.238586 106.619850,121.114929 106.975166,119.209984 
	C106.674026,117.765388 106.372887,116.320786 106.015404,114.203110 
	C105.696213,113.435524 105.377029,112.667938 105.001488,111.313187 
	C104.704468,110.858162 104.407440,110.403130 103.837105,109.383690 
	C102.908592,108.554329 101.980080,107.724968 100.829178,106.374733 
	C100.255585,105.899658 99.681992,105.424583 98.820679,104.414780 
	C98.247078,104.260742 97.673477,104.106705 96.703453,103.339775 
	C95.500130,103.209328 94.296799,103.078888 92.626747,102.290016 
	C82.967743,101.416718 76.585281,105.810196 73.998695,115.742241 
	C73.978371,117.528687 73.958038,119.315140 74.022995,121.560555 
	C74.022995,121.560555 74.162964,122.005890 74.038498,122.679512 
	C74.322319,123.470360 74.606140,124.261200 74.995110,125.700989 
	C75.380951,126.469185 75.766792,127.237373 76.204071,128.613312 
	C77.101768,129.426010 77.999466,130.238693 79.177399,131.632690 
	C80.083031,132.104706 80.988670,132.576721 82.244728,133.635071 
	C83.496971,134.036606 84.749214,134.438126 86.647552,134.978119 
	C87.445259,135.271835 88.242966,135.565567 89.847580,135.974411 
M193.231598,125.697273 
	C194.804489,127.503929 196.377380,129.310593 198.245255,131.745453 
	C200.500839,132.775742 202.756439,133.806015 205.727280,135.192978 
	C214.807816,137.786865 224.931213,130.273331 225.142639,120.368004 
	C224.801315,117.895485 224.459991,115.422966 224.015823,112.267357 
	C223.046082,110.826454 222.076324,109.385544 220.846420,107.352951 
	C219.514175,106.424561 218.181946,105.496178 216.211365,104.081245 
	C204.264740,97.347168 190.821808,108.151566 192.038086,120.751060 
	C192.410385,122.170326 192.782684,123.589592 193.231598,125.697273 
M161.785446,107.298721 
	C160.461075,106.385956 159.136703,105.473198 157.166656,104.097008 
	C146.891937,97.675499 131.236176,106.987198 133.041214,119.791618 
	C133.416656,121.529358 133.792099,123.267097 134.060257,125.680130 
	C134.985001,127.140091 135.909744,128.600037 137.139618,130.651337 
	C138.392105,131.450317 139.644577,132.249298 141.293304,133.696625 
	C154.973465,140.528473 167.572937,129.258926 165.972504,118.238678 
	C165.689377,116.811760 165.406250,115.384842 165.029373,113.235550 
	C164.035355,111.451981 163.041351,109.668404 161.785446,107.298721 
M984.968750,125.633781 
	C984.173340,124.784584 983.296814,123.997322 982.594788,123.076920 
	C971.973145,109.150787 961.335754,95.236336 950.780762,81.259720 
	C939.749451,66.652313 928.835388,51.956127 917.754944,37.386311 
	C916.883240,36.240055 915.120972,35.127377 913.753601,35.103790 
	C902.968994,34.917744 892.179810,35.000439 881.200867,35.000439 
	C881.200867,90.467186 881.200867,145.537704 881.200867,200.795135 
	C893.473450,200.795135 905.544922,200.795135 918.238892,200.795135 
	C918.238892,166.525986 918.238892,132.457031 918.238892,97.614738 
	C920.782898,101.000832 922.700806,103.605804 924.672546,106.169418 
	C937.042603,122.252754 949.499268,138.270142 961.778992,154.422043 
	C971.578918,167.312225 981.107117,180.408813 990.899048,193.305099 
	C993.024536,196.104492 995.592834,200.414276 998.245178,200.639725 
	C1008.417603,201.504364 1018.707214,200.989670 1028.632080,200.989670 
	C1028.632080,145.199631 1028.632080,90.129036 1028.632080,35.194515 
	C1016.309448,35.194515 1004.355225,35.194515 992.016968,35.194515 
	C992.016968,68.420708 992.016968,101.455544 992.016968,135.108093 
	C989.386353,131.814804 987.208923,129.088928 984.968750,125.633781 
M772.000000,151.499435 
	C772.000000,145.735062 772.000000,139.970688 772.000000,133.820251 
	C798.312500,133.820251 824.050476,133.820251 849.709229,133.820251 
	C849.709229,122.682587 849.709229,111.943970 849.709229,100.815208 
	C823.682373,100.815208 797.944397,100.815208 772.293335,100.815208 
	C772.293335,89.677460 772.293335,78.938766 772.293335,67.810791 
	C801.988831,67.810791 831.392883,67.810791 860.704834,67.810791 
	C860.704834,56.673576 860.704834,45.934956 860.704834,35.292419 
	C818.674988,35.292419 776.940918,35.292419 735.287354,35.292419 
	C735.287354,90.651031 735.287354,145.716751 735.287354,200.715485 
	C777.642578,200.715485 819.709839,200.715485 861.712891,200.715485 
	C861.712891,189.690155 861.712891,178.951645 861.712891,167.823303 
	C831.690430,167.823303 801.953125,167.823303 772.000000,167.823303 
	C772.000000,162.451782 772.000000,157.474564 772.000000,151.499435 
M414.000000,94.500000 
	C414.000000,74.739220 414.000000,54.978439 414.000000,35.287376 
	C401.356079,35.287376 389.284637,35.287376 376.821533,35.287376 
	C376.821533,56.977821 376.821533,78.383507 376.821533,99.711708 
	C354.686615,99.711708 332.950195,99.711708 310.819672,99.711708 
	C310.819672,78.020317 310.819672,56.614620 310.819672,35.290977 
	C298.348785,35.290977 286.277252,35.290977 274.285339,35.290977 
	C274.285339,90.647736 274.285339,145.713058 274.285339,200.712494 
	C286.644196,200.712494 298.715637,200.712494 311.178650,200.712494 
	C311.178650,178.688629 311.178650,156.949738 311.178650,135.288345 
	C333.313477,135.288345 355.049896,135.288345 377.180359,135.288345 
	C377.180359,157.313065 377.180359,179.051956 377.180359,200.709045 
	C389.651184,200.709045 401.722717,200.709045 414.000000,200.709045 
	C414.000000,165.445679 414.000000,130.472839 414.000000,94.500000 
M552.966553,81.708992 
	C546.062256,65.879852 539.158020,50.050716 532.157166,34.000084 
	C521.563538,34.000084 510.741577,33.908360 499.925507,34.119389 
	C498.614197,34.144978 496.664703,35.516800 496.139343,36.746700 
	C485.382782,61.927692 474.858185,87.207619 464.146820,112.408112 
	C452.993591,138.648331 441.680145,164.820404 430.470123,191.036560 
	C429.134674,194.159729 428.008942,197.372604 426.610291,200.999634 
	C439.118805,200.999634 450.770294,201.069565 462.418091,200.894730 
	C463.622894,200.876648 465.426544,199.668182 465.902252,198.560898 
	C470.391785,188.111511 474.571503,177.528809 479.081818,167.088776 
	C479.658478,165.753906 481.607025,164.142258 482.933075,164.130539 
	C503.921021,163.944901 524.911621,163.945908 545.899658,164.123550 
	C547.278931,164.135223 549.344849,165.618515 549.903687,166.925247 
	C554.437195,177.526291 558.643433,188.266922 563.099304,198.902206 
	C563.488281,199.830627 564.943298,200.897568 565.914062,200.908279 
	C578.196045,201.043961 590.479919,200.997467 603.345398,200.997467 
	C586.414856,161.148407 569.707458,121.824493 552.966553,81.708992 
M1086.961548,46.595478 
	C1085.462280,42.758564 1083.963013,38.921654 1082.472046,35.105774 
	C1068.694702,35.105774 1055.074341,35.105774 1041.432007,35.105774 
	C1041.698730,36.316051 1041.791260,37.481617 1042.208130,38.516468 
	C1050.588501,59.319584 1059.016235,80.103592 1067.414062,100.899673 
	C1080.610596,133.578644 1093.764526,166.274948 1107.078247,198.906021 
	C1107.621948,200.238647 1109.586670,201.826935 1110.928955,201.864014 
	C1120.253418,202.121567 1129.591064,202.103027 1138.917603,201.886124 
	C1140.280029,201.854431 1142.337280,200.600967 1142.837036,199.398972 
	C1147.632446,187.865631 1152.124878,176.206955 1156.774780,164.612457 
	C1171.739136,127.298759 1186.747559,90.002670 1201.701172,52.684658 
	C1203.984253,46.987347 1206.067261,41.209946 1208.420654,35.000336 
	C1195.268921,35.000336 1182.948853,34.934376 1170.632080,35.103298 
	C1169.412720,35.120018 1167.523193,36.309326 1167.108276,37.397945 
	C1161.289795,52.661427 1155.673340,68.001884 1150.008423,83.323936 
	C1141.848633,105.394424 1133.689453,127.465187 1125.317993,150.109406 
	C1119.735229,135.151230 1114.359375,120.765305 1108.996704,106.374413 
	C1101.671875,86.717842 1094.357178,67.057533 1086.961548,46.595478 
M633.000000,159.500000 
	C633.000000,173.262543 633.000000,187.025070 633.000000,200.711136 
	C645.646790,200.711136 657.718323,200.711136 670.177673,200.711136 
	C670.177673,156.688690 670.177673,112.953827 670.177673,68.824104 
	C686.975037,68.824104 703.382446,68.824104 719.710449,68.824104 
	C719.710449,57.351788 719.710449,46.279991 719.710449,35.285881 
	C673.687012,35.285881 627.953674,35.285881 582.288330,35.285881 
	C582.288330,46.645775 582.288330,57.717545 582.288330,69.181351 
	C599.313904,69.181351 616.054382,69.181351 633.000000,69.181351 
	C633.000000,99.219368 633.000000,128.859680 633.000000,159.500000 
M1222.000000,182.499451 
	C1222.000000,188.597366 1222.000000,194.695297 1222.000000,200.709198 
	C1234.983398,200.709198 1247.388550,200.709198 1259.711914,200.709198 
	C1259.711914,145.350708 1259.711914,90.283493 1259.711914,35.290779 
	C1247.016724,35.290779 1234.611450,35.290779 1222.000000,35.290779 
	C1222.000000,84.220695 1222.000000,132.860138 1222.000000,182.499451 
z"/>
<path fill="#000000" opacity="1.000000" stroke="none" 
	d="
M158.531723,1.000000 
	C163.892334,1.666599 168.769089,2.494012 173.679871,2.970453 
	C190.179504,4.571241 206.126831,8.582066 221.005096,15.719071 
	C232.098892,21.040688 242.534744,27.759096 253.126556,34.084930 
	C255.887741,35.734013 258.136719,38.240719 261.177917,40.827232 
	C256.345612,44.241997 251.543457,47.624424 246.753387,51.023865 
	C242.929306,53.737751 238.807861,56.138657 235.412750,59.313988 
	C233.112549,61.465290 231.289429,61.118324 229.402283,59.725906 
	C216.370834,50.110676 201.584076,44.375683 186.044891,40.660625 
	C178.030685,38.744617 169.726868,37.645367 161.494720,37.138611 
	C151.864670,36.545803 141.999100,35.860554 132.545395,37.279160 
	C119.729935,39.202229 106.908409,42.199745 94.639153,46.358162 
	C80.169785,51.262253 67.050179,59.254242 56.298306,70.329742 
	C44.685905,82.291672 38.007942,96.475853 36.822311,113.521255 
	C35.660416,130.225479 39.755054,145.175186 49.288017,158.503525 
	C59.585796,172.901154 74.139122,182.304230 90.255020,188.791550 
	C101.051445,193.137558 112.406715,196.832825 123.855164,198.617554 
	C135.701126,200.464279 147.960770,199.894455 160.041122,199.940094 
	C174.951324,199.996429 189.291885,196.580658 202.981064,190.915222 
	C211.388153,187.435852 219.536499,183.216171 227.438538,178.695297 
	C230.131454,177.154633 231.214630,176.927307 233.622421,178.971359 
	C241.424179,185.594559 249.556137,191.828812 258.635895,199.070175 
	C250.963669,204.162033 243.964188,209.883209 236.070084,213.802399 
	C223.201187,220.191452 209.422821,224.761734 196.612000,231.251816 
	C172.660156,243.386093 149.125351,256.343689 125.419907,268.964172 
	C118.337151,272.734955 111.263931,276.523682 104.093170,280.652100 
	C104.000000,281.000000 103.500000,281.000000 103.250000,280.578003 
	C103.308693,278.581207 103.487755,276.967529 103.946312,275.437622 
	C108.158890,261.383240 112.419930,247.343399 116.651672,233.349457 
	C115.116158,232.867111 113.771759,232.265915 112.366135,232.030807 
	C97.833305,229.600098 84.088791,224.695801 70.885597,218.349838 
	C51.649483,209.104218 35.073071,196.258865 22.032545,179.337341 
	C14.175746,169.142288 7.977663,157.855591 4.981087,145.111313 
	C3.640692,139.410675 2.326231,133.703964 1.000000,128.000000 
	C1.000000,121.978844 1.000000,115.957695 1.394967,109.319794 
	C2.192788,105.805855 2.518823,102.895538 3.010959,100.013580 
	C6.218106,81.232483 14.999606,65.118614 27.513020,51.106495 
	C41.878685,35.020294 59.292725,23.087873 79.331810,14.928316 
	C97.723534,7.439537 116.653961,2.608575 136.572525,1.961652 
	C137.724213,1.924247 138.857925,1.333323 140.000000,1.000000 
	C146.021149,1.000000 152.042297,1.000000 158.531723,1.000000 
z"/>
<path fill="#000000" opacity="1.000000" stroke="none" 
	d="
M1450.000000,200.666672 
	C1438.170532,201.000000 1426.338013,201.133484 1414.515137,200.854752 
	C1412.760132,200.813370 1410.132080,199.222351 1409.469482,197.678177 
	C1405.053345,187.387024 1401.146851,176.878006 1396.815796,166.548416 
	C1396.316040,165.356293 1394.225342,164.117416 1392.863403,164.107330 
	C1372.038208,163.953232 1351.210327,164.102341 1330.385986,163.893311 
	C1327.140137,163.860748 1325.990356,165.455109 1325.039551,167.789307 
	C1320.992310,177.725906 1316.862305,187.633438 1313.094238,197.676056 
	C1312.104126,200.314743 1310.922607,201.092331 1308.232422,201.059586 
	C1296.738647,200.919662 1285.242188,201.000000 1273.199951,201.000000 
	C1296.907837,145.280930 1320.511841,89.805672 1344.256348,34.000492 
	C1355.012695,34.000492 1365.801392,33.901112 1376.583130,34.129871 
	C1377.888672,34.157570 1379.796875,35.683052 1380.347290,36.974068 
	C1391.086060,62.168770 1401.596558,87.460716 1412.296753,112.672127 
	C1421.498413,134.353149 1430.879272,155.958115 1440.180176,177.597046 
	C1443.217285,184.662903 1446.251709,191.729843 1449.643799,198.898132 
	C1450.000000,199.444443 1450.000000,199.888901 1450.000000,200.666672 
M1367.035645,94.313698 
	C1365.205688,89.625893 1363.375732,84.938087 1361.236328,79.457474 
	C1354.050659,96.987900 1347.133423,113.863731 1340.220337,130.729370 
	C1354.391602,130.729370 1368.101929,130.729370 1382.193848,130.729370 
	C1377.185791,118.568352 1372.328857,106.774223 1367.035645,94.313698 
z"/>
<path fill="#FFFFFF" opacity="1.000000" stroke="none" 
	d="
M1.000000,128.468658 
	C2.326231,133.703964 3.640692,139.410675 4.981087,145.111313 
	C7.977663,157.855591 14.175746,169.142288 22.032545,179.337341 
	C35.073071,196.258865 51.649483,209.104218 70.885597,218.349838 
	C84.088791,224.695801 97.833305,229.600098 112.366135,232.030807 
	C113.771759,232.265915 115.116158,232.867111 116.651672,233.349457 
	C112.419930,247.343399 108.158890,261.383240 103.946312,275.437622 
	C103.487755,276.967529 103.308693,278.581207 103.000000,280.578003 
	C69.058418,281.000000 35.116844,281.000000 1.000000,281.000000 
	C1.000000,230.312576 1.000000,179.624939 1.000000,128.468658 
z"/>
<path fill="#FFFFFF" opacity="1.000000" stroke="none" 
	d="
M139.531342,1.000000 
	C138.857925,1.333323 137.724213,1.924247 136.572525,1.961652 
	C116.653961,2.608575 97.723534,7.439537 79.331810,14.928316 
	C59.292725,23.087873 41.878685,35.020294 27.513020,51.106495 
	C14.999606,65.118614 6.218106,81.232483 3.010959,100.013580 
	C2.518823,102.895538 2.192788,105.805855 1.394967,108.851532 
	C1.000000,73.063866 1.000000,37.127739 1.000000,1.000000 
	C47.020718,1.000000 93.041702,1.000000 139.531342,1.000000 
z"/>
<path fill="#000000" opacity="1.000000" stroke="none" 
	d="
M985.000122,125.998413 
	C987.208923,129.088928 989.386353,131.814804 992.016968,135.108093 
	C992.016968,101.455544 992.016968,68.420708 992.016968,35.194515 
	C1004.355225,35.194515 1016.309448,35.194515 1028.632080,35.194515 
	C1028.632080,90.129036 1028.632080,145.199631 1028.632080,200.989670 
	C1018.707214,200.989670 1008.417603,201.504364 998.245178,200.639725 
	C995.592834,200.414276 993.024536,196.104492 990.899048,193.305099 
	C981.107117,180.408813 971.578918,167.312225 961.778992,154.422043 
	C949.499268,138.270142 937.042603,122.252754 924.672546,106.169418 
	C922.700806,103.605804 920.782898,101.000832 918.238892,97.614738 
	C918.238892,132.457031 918.238892,166.525986 918.238892,200.795135 
	C905.544922,200.795135 893.473450,200.795135 881.200867,200.795135 
	C881.200867,145.537704 881.200867,90.467186 881.200867,35.000439 
	C892.179810,35.000439 902.968994,34.917744 913.753601,35.103790 
	C915.120972,35.127377 916.883240,36.240055 917.754944,37.386311 
	C928.835388,51.956127 939.749451,66.652313 950.780762,81.259720 
	C961.335754,95.236336 971.973145,109.150787 982.594788,123.076920 
	C983.296814,123.997322 984.173340,124.784584 985.000122,125.998413 
z"/>
<path fill="#000000" opacity="1.000000" stroke="none" 
	d="
M772.000000,151.998383 
	C772.000000,157.474564 772.000000,162.451782 772.000000,167.823303 
	C801.953125,167.823303 831.690430,167.823303 861.712891,167.823303 
	C861.712891,178.951645 861.712891,189.690155 861.712891,200.715485 
	C819.709839,200.715485 777.642578,200.715485 735.287354,200.715485 
	C735.287354,145.716751 735.287354,90.651031 735.287354,35.292419 
	C776.940918,35.292419 818.674988,35.292419 860.704834,35.292419 
	C860.704834,45.934956 860.704834,56.673576 860.704834,67.810791 
	C831.392883,67.810791 801.988831,67.810791 772.293335,67.810791 
	C772.293335,78.938766 772.293335,89.677460 772.293335,100.815208 
	C797.944397,100.815208 823.682373,100.815208 849.709229,100.815208 
	C849.709229,111.943970 849.709229,122.682587 849.709229,133.820251 
	C824.050476,133.820251 798.312500,133.820251 772.000000,133.820251 
	C772.000000,139.970688 772.000000,145.735062 772.000000,151.998383 
z"/>
<path fill="#000000" opacity="1.000000" stroke="none" 
	d="
M414.000000,95.000000 
	C414.000000,130.472839 414.000000,165.445679 414.000000,200.709045 
	C401.722717,200.709045 389.651184,200.709045 377.180359,200.709045 
	C377.180359,179.051956 377.180359,157.313065 377.180359,135.288345 
	C355.049896,135.288345 333.313477,135.288345 311.178650,135.288345 
	C311.178650,156.949738 311.178650,178.688629 311.178650,200.712494 
	C298.715637,200.712494 286.644196,200.712494 274.285339,200.712494 
	C274.285339,145.713058 274.285339,90.647736 274.285339,35.290977 
	C286.277252,35.290977 298.348785,35.290977 310.819672,35.290977 
	C310.819672,56.614620 310.819672,78.020317 310.819672,99.711708 
	C332.950195,99.711708 354.686615,99.711708 376.821533,99.711708 
	C376.821533,78.383507 376.821533,56.977821 376.821533,35.287376 
	C389.284637,35.287376 401.356079,35.287376 414.000000,35.287376 
	C414.000000,54.978439 414.000000,74.739220 414.000000,95.000000 
z"/>
<path fill="#000000" opacity="1.000000" stroke="none" 
	d="
M552.983276,82.104782 
	C569.707458,121.824493 586.414856,161.148407 603.345398,200.997467 
	C590.479919,200.997467 578.196045,201.043961 565.914062,200.908279 
	C564.943298,200.897568 563.488281,199.830627 563.099304,198.902206 
	C558.643433,188.266922 554.437195,177.526291 549.903687,166.925247 
	C549.344849,165.618515 547.278931,164.135223 545.899658,164.123550 
	C524.911621,163.945908 503.921021,163.944901 482.933075,164.130539 
	C481.607025,164.142258 479.658478,165.753906 479.081818,167.088776 
	C474.571503,177.528809 470.391785,188.111511 465.902252,198.560898 
	C465.426544,199.668182 463.622894,200.876648 462.418091,200.894730 
	C450.770294,201.069565 439.118805,200.999634 426.610291,200.999634 
	C428.008942,197.372604 429.134674,194.159729 430.470123,191.036560 
	C441.680145,164.820404 452.993591,138.648331 464.146820,112.408112 
	C474.858185,87.207619 485.382782,61.927692 496.139343,36.746700 
	C496.664703,35.516800 498.614197,34.144978 499.925507,34.119389 
	C510.741577,33.908360 521.563538,34.000084 532.157166,34.000084 
	C539.158020,50.050716 546.062256,65.879852 552.983276,82.104782 
M534.979980,128.988129 
	C528.190979,112.747910 521.402039,96.507690 514.385193,79.722397 
	C507.341034,96.907951 500.469452,113.672455 493.368896,130.995667 
	C507.266846,130.995667 520.235962,131.010773 533.204773,130.947159 
	C533.798950,130.944260 534.389526,130.233261 534.979980,128.988129 
z"/>
<path fill="#000000" opacity="1.000000" stroke="none" 
	d="
M1086.999756,46.997147 
	C1094.357178,67.057533 1101.671875,86.717842 1108.996704,106.374413 
	C1114.359375,120.765305 1119.735229,135.151230 1125.317993,150.109406 
	C1133.689453,127.465187 1141.848633,105.394424 1150.008423,83.323936 
	C1155.673340,68.001884 1161.289795,52.661427 1167.108276,37.397945 
	C1167.523193,36.309326 1169.412720,35.120018 1170.632080,35.103298 
	C1182.948853,34.934376 1195.268921,35.000336 1208.420654,35.000336 
	C1206.067261,41.209946 1203.984253,46.987347 1201.701172,52.684658 
	C1186.747559,90.002670 1171.739136,127.298759 1156.774780,164.612457 
	C1152.124878,176.206955 1147.632446,187.865631 1142.837036,199.398972 
	C1142.337280,200.600967 1140.280029,201.854431 1138.917603,201.886124 
	C1129.591064,202.103027 1120.253418,202.121567 1110.928955,201.864014 
	C1109.586670,201.826935 1107.621948,200.238647 1107.078247,198.906021 
	C1093.764526,166.274948 1080.610596,133.578644 1067.414062,100.899673 
	C1059.016235,80.103592 1050.588501,59.319584 1042.208130,38.516468 
	C1041.791260,37.481617 1041.698730,36.316051 1041.432007,35.105774 
	C1055.074341,35.105774 1068.694702,35.105774 1082.472046,35.105774 
	C1083.963013,38.921654 1085.462280,42.758564 1086.999756,46.997147 
z"/>
<path fill="#000000" opacity="1.000000" stroke="none" 
	d="
M633.000000,159.000000 
	C633.000000,128.859680 633.000000,99.219368 633.000000,69.181351 
	C616.054382,69.181351 599.313904,69.181351 582.288330,69.181351 
	C582.288330,57.717545 582.288330,46.645775 582.288330,35.285881 
	C627.953674,35.285881 673.687012,35.285881 719.710449,35.285881 
	C719.710449,46.279991 719.710449,57.351788 719.710449,68.824104 
	C703.382446,68.824104 686.975037,68.824104 670.177673,68.824104 
	C670.177673,112.953827 670.177673,156.688690 670.177673,200.711136 
	C657.718323,200.711136 645.646790,200.711136 633.000000,200.711136 
	C633.000000,187.025070 633.000000,173.262543 633.000000,159.000000 
z"/>
<path fill="#000000" opacity="1.000000" stroke="none" 
	d="
M1222.000000,181.999512 
	C1222.000000,132.860138 1222.000000,84.220695 1222.000000,35.290779 
	C1234.611450,35.290779 1247.016724,35.290779 1259.711914,35.290779 
	C1259.711914,90.283493 1259.711914,145.350708 1259.711914,200.709198 
	C1247.388550,200.709198 1234.983398,200.709198 1222.000000,200.709198 
	C1222.000000,194.695297 1222.000000,188.597366 1222.000000,181.999512 
z"/>
<path fill="#56A143" opacity="1.000000" stroke="none" 
	d="
M205.012024,134.836304 
	C202.756439,133.806015 200.500839,132.775742 198.143494,131.075043 
	C199.292328,129.191406 200.400925,127.770462 201.818451,126.801437 
	C207.494247,122.921471 213.236298,119.135582 219.021622,115.420464 
	C220.598923,114.407578 222.413177,113.763687 224.118683,112.950447 
	C224.459991,115.422966 224.801315,117.895485 224.630402,120.691368 
	C219.257263,124.008583 214.308990,126.872925 209.580322,130.062775 
	C207.796097,131.266373 206.519836,133.222961 205.012024,134.836304 
z"/>
<path fill="#78C642" opacity="1.000000" stroke="none" 
	d="
M192.168503,120.006287 
	C190.821808,108.151566 204.264740,97.347168 216.150909,104.483604 
	C208.116455,109.926071 200.142471,114.966179 192.168503,120.006287 
z"/>
<path fill="#416EF2" opacity="1.000000" stroke="none" 
	d="
M165.834747,119.006409 
	C167.572937,129.258926 154.973465,140.528473 141.418549,133.233032 
	C144.221283,131.159393 146.860931,129.481873 149.584320,127.953598 
	C154.976669,124.927597 160.415268,121.984039 165.834747,119.006409 
z"/>
<path fill="#47A5EC" opacity="1.000000" stroke="none" 
	d="
M133.167389,119.004959 
	C131.236176,106.987198 146.891937,97.675499 157.106812,104.497078 
	C149.087112,109.599754 141.127258,114.302353 133.167389,119.004959 
z"/>
<path fill="#4487EF" opacity="1.000000" stroke="none" 
	d="
M136.834503,130.059998 
	C135.909744,128.600037 134.985001,127.140091 134.458099,125.297699 
	C143.919739,119.238449 152.983536,113.561646 162.047333,107.884834 
	C163.041351,109.668404 164.035355,111.451981 164.709503,113.639771 
	C162.350128,115.090111 160.250641,116.034920 158.281860,117.200516 
	C151.109100,121.447098 143.980042,125.767448 136.834503,130.059998 
z"/>
<path fill="#4696EE" opacity="1.000000" stroke="none" 
	d="
M161.916382,107.591782 
	C152.983536,113.561646 143.919739,119.238449 134.511734,124.960052 
	C133.792099,123.267097 133.416656,121.529358 133.104309,119.398285 
	C141.127258,114.302353 149.087112,109.599754 157.429657,104.728790 
	C159.136703,105.473198 160.461075,106.385956 161.916382,107.591782 
z"/>
<path fill="#61AD43" opacity="1.000000" stroke="none" 
	d="
M224.067261,112.608902 
	C222.413177,113.763687 220.598923,114.407578 219.021622,115.420464 
	C213.236298,119.135582 207.494247,122.921471 201.818451,126.801437 
	C200.400925,127.770462 199.292328,129.191406 197.996002,130.760956 
	C196.377380,129.310593 194.804489,127.503929 193.556610,125.344048 
	C196.594742,123.487320 199.394638,122.119728 202.003784,120.453445 
	C208.418137,116.357048 214.744705,112.123199 221.106583,107.944641 
	C222.076324,109.385544 223.046082,110.826454 224.067261,112.608902 
z"/>
<path fill="#6DBA43" opacity="1.000000" stroke="none" 
	d="
M220.976501,107.648788 
	C214.744705,112.123199 208.418137,116.357048 202.003784,120.453445 
	C199.394638,122.119728 196.594742,123.487320 193.518311,124.999840 
	C192.782684,123.589592 192.410385,122.170326 192.103302,120.378670 
	C200.142471,114.966179 208.116455,109.926071 216.470078,104.726883 
	C218.181946,105.496178 219.514175,106.424561 220.976501,107.648788 
z"/>
<path fill="#427AF1" opacity="1.000000" stroke="none" 
	d="
M136.987061,130.355667 
	C143.980042,125.767448 151.109100,121.447098 158.281860,117.200516 
	C160.250641,116.034920 162.350128,115.090111 164.756378,114.000946 
	C165.406250,115.384842 165.689377,116.811760 165.903625,118.622543 
	C160.415268,121.984039 154.976669,124.927597 149.584320,127.953598 
	C146.860931,129.481873 144.221283,131.159393 141.220428,132.908859 
	C139.644577,132.249298 138.392105,131.450317 136.987061,130.355667 
z"/>
<path fill="#448C43" opacity="1.000000" stroke="none" 
	d="
M205.369659,135.014648 
	C206.519836,133.222961 207.796097,131.266373 209.580322,130.062775 
	C214.308990,126.872925 219.257263,124.008583 224.477310,121.012482 
	C224.931213,130.273331 214.807816,137.786865 205.369659,135.014648 
z"/>
<path fill="#FD6093" opacity="1.000000" stroke="none" 
	d="
M78.897156,131.051392 
	C77.999466,130.238693 77.101768,129.426010 76.521774,128.266739 
	C79.227623,126.445747 81.660828,125.038986 83.995361,123.484100 
	C90.721710,119.004128 97.408249,114.464378 104.110420,109.948105 
	C104.407440,110.403130 104.704468,110.858162 104.839691,111.890091 
	C96.084312,118.661797 87.490738,124.856590 78.897156,131.051392 
z"/>
<path fill="#FC7080" opacity="1.000000" stroke="none" 
	d="
M103.973763,109.665901 
	C97.408249,114.464378 90.721710,119.004128 83.995361,123.484100 
	C81.660828,125.038986 79.227623,126.445747 76.496063,127.962860 
	C75.766792,127.237373 75.380951,126.469185 75.305038,125.331711 
	C80.384346,121.832481 85.238518,118.822655 89.896729,115.535179 
	C93.735481,112.826035 97.342087,109.787933 101.051567,106.895607 
	C101.980080,107.724968 102.908592,108.554329 103.973763,109.665901 
z"/>
<path fill="#FD50A5" opacity="1.000000" stroke="none" 
	d="
M79.037277,131.342041 
	C87.490738,124.856590 96.084312,118.661797 104.867867,112.183670 
	C105.377029,112.667938 105.696213,113.435524 105.854576,114.825157 
	C97.760605,121.314384 89.827454,127.181564 81.894302,133.048737 
	C80.988670,132.576721 80.083031,132.104706 79.037277,131.342041 
z"/>
<path fill="#FC806F" opacity="1.000000" stroke="none" 
	d="
M100.940369,106.635170 
	C97.342087,109.787933 93.735481,112.826035 89.896729,115.535179 
	C85.238518,118.822655 80.384346,121.832481 75.252457,125.007233 
	C74.606140,124.261200 74.322319,123.470360 74.443771,122.299088 
	C82.935493,116.262283 91.021942,110.605896 99.108398,104.949509 
	C99.681992,105.424583 100.255585,105.899658 100.940369,106.635170 
z"/>
<path fill="#FD40B7" opacity="1.000000" stroke="none" 
	d="
M82.069519,133.341904 
	C89.827454,127.181564 97.760605,121.314384 105.882751,115.161697 
	C106.372887,116.320786 106.674026,117.765388 106.549652,119.607903 
	C101.767159,122.820442 97.305161,125.488358 93.092255,128.504227 
	C90.529968,130.338486 88.352043,132.709671 86.001465,134.839661 
	C84.749214,134.438126 83.496971,134.036606 82.069519,133.341904 
z"/>
<path fill="#FBAD3D" opacity="1.000000" stroke="none" 
	d="
M74.157600,115.003571 
	C76.585281,105.810196 82.967743,101.416718 92.540237,102.758980 
	C91.221008,104.061783 90.006134,104.923569 88.752388,105.724495 
	C83.894180,108.828049 79.023582,111.912201 74.157600,115.003571 
z"/>
<path fill="#FC905E" opacity="1.000000" stroke="none" 
	d="
M98.964539,104.682144 
	C91.021942,110.605896 82.935493,116.262283 74.505997,121.962280 
	C74.162964,122.005890 74.022995,121.560555 74.130234,121.020424 
	C81.858276,114.971085 89.479080,109.461876 97.099884,103.952667 
	C97.673477,104.106705 98.247078,104.260742 98.964539,104.682144 
z"/>
<path fill="#FE2FC9" opacity="1.000000" stroke="none" 
	d="
M86.324509,134.908890 
	C88.352043,132.709671 90.529968,130.338486 93.092255,128.504227 
	C97.305161,125.488358 101.767159,122.820442 106.485085,119.998550 
	C106.619850,121.114929 106.393661,122.238586 105.664772,123.725693 
	C99.788269,128.012527 94.414474,131.935913 89.040680,135.859299 
	C88.242966,135.565567 87.445259,135.271835 86.324509,134.908890 
z"/>
<path fill="#FA9E4D" opacity="1.000000" stroke="none" 
	d="
M96.901672,103.646225 
	C89.479080,109.461876 81.858276,114.971085 74.087593,120.790939 
	C73.958038,119.315140 73.978371,117.528687 74.078148,115.372910 
	C79.023582,111.912201 83.894180,108.828049 88.752388,105.724495 
	C90.006134,104.923569 91.221008,104.061783 92.773605,103.088196 
	C94.296799,103.078888 95.500130,103.209328 96.901672,103.646225 
z"/>
<path fill="#FD1EDB" opacity="1.000000" stroke="none" 
	d="
M89.444130,135.916855 
	C94.414474,131.935913 99.788269,128.012527 105.500549,124.048027 
	C104.020798,130.929749 98.706978,134.906433 89.444130,135.916855 
z"/>
<path fill="#FFFFFF" opacity="1.000000" stroke="none" 
	d="
M1367.253784,94.646896 
	C1372.328857,106.774223 1377.185791,118.568352 1382.193848,130.729370 
	C1368.101929,130.729370 1354.391602,130.729370 1340.220337,130.729370 
	C1347.133423,113.863731 1354.050659,96.987900 1361.236328,79.457474 
	C1363.375732,84.938087 1365.205688,89.625893 1367.253784,94.646896 
z"/>
<path fill="#FFFFFF" opacity="1.000000" stroke="none" 
	d="
M534.980896,129.420105 
	C534.389526,130.233261 533.798950,130.944260 533.204773,130.947159 
	C520.235962,131.010773 507.266846,130.995667 493.368896,130.995667 
	C500.469452,113.672455 507.341034,96.907951 514.385193,79.722397 
	C521.402039,96.507690 528.190979,112.747910 534.980896,129.420105 
z"/>
</svg>